<?xml version="1.0" encoding="utf-8"?>
<!-- Generator: Adobe Illustrator 16.0.0, SVG Export Plug-In . SVG Version: 6.00 Build 0)  -->
<!DOCTYPE svg PUBLIC "-//W3C//DTD SVG 1.1//EN" "http://www.w3.org/Graphics/SVG/1.1/DTD/svg11.dtd">
<svg version="1.1" id="Layer_1" xmlns="http://www.w3.org/2000/svg" xmlns:xlink="http://www.w3.org/1999/xlink" x="0px" y="0px"
	 width="45.354px" height="39.686px" viewBox="2.834 5.669 45.354 39.686" enable-background="new 2.834 5.669 45.354 39.686"
	 xml:space="preserve">
<path d="M19.512,41.51c-8.835,0-15.998-7.162-15.998-15.998S10.677,9.513,19.512,9.513c6.004,0,11.229,3.312,13.965,8.203
	c0.664-0.113,1.338-0.205,2.033-0.205c6.627,0,11.998,5.373,11.998,12c0,6.625-5.371,11.998-11.998,11.998
	C32.735,41.51,22.711,41.51,19.512,41.51z M35.51,37.51c4.418,0,8-3.582,8-7.998c0-4.417-3.582-8-8-8c-1.6,0-3.082,0.48-4.334,1.291
	c-1.229-5.316-5.973-9.29-11.664-9.29c-6.626,0-11.998,5.372-11.998,11.999c0,6.626,5.372,11.998,11.998,11.998
	C23.13,37.51,32.492,37.51,35.51,37.51z"/>
</svg>
