<?xml version="1.0" encoding="utf-8"?>
<!-- Generator: Adobe Illustrator 23.0.2, SVG Export Plug-In . SVG Version: 6.00 Build 0)  -->
<svg version="1.1" baseProfile="basic" id="Ebene_1"
	 xmlns="http://www.w3.org/2000/svg" xmlns:xlink="http://www.w3.org/1999/xlink" x="0px" y="0px" viewBox="0 0 992 365"
	 xml:space="preserve">
<path d="M977.6,184.1c-5.8-7.4-14.6-11.6-24.7-11.8c0.2-0.4,0.4-0.9,0.5-1.3c4.2-11.7,2.8-23.4-4-32.1c-6.7-8.6-17.5-12.8-29.6-11.6
	l-14.4,1.5l24-66c4.2-11.7,2.8-23.4-4-32.1c-6.7-8.6-17.5-12.8-29.6-11.6c-12.5,1.3-24.9,8.2-33.6,18.1c-0.5-0.8-1-1.5-1.6-2.3
	c-6.7-8.6-17.5-12.8-29.6-11.6c-18.6,1.9-36.7,16.2-43.2,34l-23.7,65l2.4-48.7c0.5-9.4-2.8-17.9-9.3-24c-6.8-6.4-16.3-9.4-26.7-8.3
	l-0.5,0.1c-14.8,1.7-29.8,11.6-38.3,25.1l-33.9,54l8.3-22.8c4.2-11.7,2.8-23.4-4-32.1c-6.7-8.6-17.5-12.8-29.6-11.6
	c-10.2,1.1-20.4,5.9-28.5,13c1.3-25.1-10.7-39.4-15.6-44c-17.6-16.9-45.4-19.8-84.8-9c-11.4,1.9-23.5,5.2-35.9,9.6
	c-24.5,8.7-42.7,19.5-44.7,20.7c-1.3,0.8-2.5,1.7-3.7,2.6c-1.1-3.6-2.8-7.1-5.1-10.1c-6.7-8.6-17.5-12.8-29.6-11.6
	C366.2,27,348,41.3,341.6,59l0,0.1c-0.9-1.4-1.8-2.8-2.8-4.1c-10.6-13.5-28.2-20.1-48.5-18l-11.7,1.2c-20.8,2.2-42.3,13.2-59.1,28.8
	c-0.5-0.8-1-1.6-1.6-2.3c-6.7-8.6-17.5-12.8-29.6-11.5c-0.1,0-0.1,0-0.2,0c0,0-0.1,0-0.1,0C172.3,55,157,65.5,148.8,79.5
	c-0.9-1.7-1.9-3.3-3.1-4.9C138.9,66,128.1,61.8,116,63C97.5,65,79.3,79.2,72.9,97l-18.6,51.1c-16.1,4.5-30.6,17.6-36.1,33.2
	c-4,11.5-2.4,23.1,4.4,31.6c1.7,2.2,3.8,4.1,6,5.7l-15.4,42.2c-4.2,11.7-2.8,23.4,4,32.1c6.7,8.6,17.5,12.8,29.6,11.6
	c10.3-1.1,20.5-6,28.6-13.1c-1,14.8,2.1,31.4,15.5,44.2c10.7,10.2,25.5,15.4,44.1,15.4c3.8,0,7.7-0.2,11.8-0.6
	c13.5-1.4,29.2-5.2,46.9-11.3c100.3-20,161.4-24.8,162-24.8c5.5-0.4,10.6-2,15.2-4.5c5.9,7.6,15.1,11.8,25.4,11.8
	c1.4,0,2.8-0.1,4.2-0.2c18.6-1.9,36.7-16.2,43.2-34l23.3-64.1l8.3-10.8l-17.8,49.5c-4.2,11.6-2.7,23.3,4.1,31.9
	c5.9,7.6,15.1,11.8,25.4,11.8c1.3,0,2.7-0.1,4-0.2c0.1,0,0.2,0,0.3,0c15.7-1.7,31.2-12.3,39.4-26.3c0.9,1.7,1.9,3.3,3.1,4.9
	c6.7,8.6,17.5,12.8,29.6,11.6c10.7-1.1,21.3-6.4,29.6-14c3.6,2.4,7.8,4.2,12.4,5c2.1,0.4,4.2,0.5,6.3,0.5c1.4,0,2.7-0.1,4.1-0.2
	c15-1.6,30.2-11.4,38.8-25.2l13.1-20.9c3.3-0.7,6.6-1.6,9.9-2.4l-0.2,3.7c0,0.1,0,0.2,0,0.2c-0.5,10.7,3.9,20.3,12,26.3
	c9.2,6.8,21.9,8.1,34.6,3.5c6.5-2.3,12.4-5.9,17.5-10.3c4.7,2.5,10.1,3.9,15.9,3.9c1.3,0,2.6-0.1,3.9-0.2l151.1-12.9
	c0.7,0,1.5,0,2.2-0.1l21.8-1.9c1.5-0.1,2.9-0.4,4.3-0.8c17.7-2.8,34.7-16.6,40.8-33.6C985.9,204.4,984.4,192.8,977.6,184.1z"/>
<g>
	<path style="fill:#FFFFFF;" d="M616.1,191.7c10.9-1.3,22.6-10.8,26.2-21.1c3.6-10.4-2.3-17.8-13.1-16.4l-5.1,0.6l23.3-64
		c3.8-10.4-1.9-17.9-12.7-16.8c-10.8,1.1-22.6,10.5-26.4,20.8l-23.5,64.7l-33,4l25.4-70.6c3.1-7.2,15.2-38.5-2.5-55.4
		c-12.1-11.6-34.5-12.8-66.5-3.9c-10.5,1.7-21.7,4.7-33.4,8.9c-23.2,8.3-40.4,18.5-41.1,19c-8.2,5-10.9,15.7-6,23.9
		c3.3,5.5,9.2,8.6,15.2,8.5c3,0,5.9-0.9,8.7-2.5c14.2-8.5,53.7-27.3,84-24.4c1.5,0.6,2.7,1.3,3.7,2.2c7.6,7.1-0.1,25.2-0.1,25.2
		c-0.3,0.7-0.6,1.3-0.8,2l-61.9,172.3c-3.7,10.4,2,17.8,12.7,16.7c0,0,0.1,0,0.1,0c10.8-1.2,22.6-10.5,26.3-20.9l22.7-63.3l32.8-3.9
		l-22.4,61.5c-3.8,10.4,1.9,17.9,12.7,16.8c10.8-1.1,22.6-10.5,26.4-20.8l22.6-62.2L616.1,191.7z"/>
	<path style="fill:#FFFFFF;" d="M207.8,258.3l11.7-1.2c28.2-2.9,59.1-27.4,69-54.5l37-101.7c9.9-27.1-5-46.8-33.1-43.9l-11.7,1.2
		c-28.2,2.9-59.1,27.4-69,54.5l-37,101.7C164.8,241.5,179.6,261.2,207.8,258.3z M213.7,210.3l37-101.7c2.3-6.3,9.7-12.1,16.2-12.8
		l11.7-1.2c6.5-0.7,10.1,4.1,7.8,10.3l-37,101.7c-2.3,6.3-9.7,12.1-16.2,12.8l-11.7,1.2C215,221.3,211.4,216.6,213.7,210.3z"/>
	<path style="fill:#FFFFFF;" d="M405.5,219.5c3.8-10.4-1.9-17.9-12.7-16.8l-46.3,4.8l53-145.6c3.8-10.4-1.9-17.9-12.7-16.8
		c-10.8,1.1-22.6,10.5-26.4,20.8l-59.9,164.4c-3.8,10.4,1.9,17.9,12.7,16.8l65.9-6.8C389.9,239.2,401.7,229.8,405.5,219.5z"/>
	<path style="fill:#FFFFFF;" d="M950.1,192.5l-26.2,2.7c0,0.1-0.1,0.3-0.1,0.4l-131,10.2l53-145.6c3.8-10.4-1.9-17.9-12.7-16.8
		c-10.8,1.1-22.6,10.5-26.4,20.8l-59.9,164.4c-3.8,10.4,1.9,17.9,12.7,16.8l153.1-13c0,0,0,0.1,0,0.1l4.6-0.5l17.6-1.5
		c0-0.1,0-0.2,0.1-0.3l1.5-0.2c10.8-1.1,22.6-10.5,26.4-20.8C966.5,198.8,960.8,191.3,950.1,192.5z"/>
	<path style="fill:#FFFFFF;" d="M842.4,191.8l65.9-6.8c10.8-1.1,22.6-10.5,26.4-20.8c3.8-10.4-1.9-17.9-12.7-16.8l-46.3,4.8l35-96.1
		c3.8-10.4-1.9-17.9-12.7-16.8c-10.8,1.1-22.6,10.5-26.4,20.8L829.7,175C825.9,185.4,831.6,192.9,842.4,191.8z"/>
	<path style="fill:#FFFFFF;" d="M519.4,96.1c-8.5-3-21.6,2.7-29.2,12.7l-40.5,53l-4.8-50c-0.5-5.3-4.1-8.8-9.8-9.4
		c-5.7-0.6-12.6,1.7-18.8,6.2l-26.2,19.3c-10.6,7.8-15.6,19.7-11.2,26.7c4.4,6.9,16.3,6.4,26.8-1.2l5.8,60.4l-25.8,70.8
		c-3.8,10.4,1.9,17.9,12.7,16.8c10.8-1.1,22.6-10.5,26.4-20.8l24.4-67l71.7-93.6C528.5,109.7,527.8,99.1,519.4,96.1z"/>
	<path style="fill:#FFFFFF;" d="M746.6,72.7c0.4-7.7-5.2-12.3-13.8-11.4c-0.1,0-0.2,0-0.3,0c-8.8,1-18.4,7.5-23.6,15.8l-70,111.6
		c-8.6,3.3-16.7,10.8-19.8,19.1c-1.7,4.7-1.4,8.8,0.4,11.8L603.6,245c-6.5,10.3-4.1,20,5.3,21.7c1.5,0.3,3.2,0.3,4.9,0.1
		c8.6-0.9,18.5-7.2,23.9-15.9l17.9-28.5c12.6-1.2,29.1-8.1,43.8-9.4l-1.9,30.3c-0.5,9.6,8.4,14.1,19.8,10
		c11.4-4.1,21.1-15.2,21.5-24.8l1.6-32.1c0,0,0,0,0-0.1c1.5-4,1.6-7.6,0.5-10.5L746.6,72.7z M700.5,181.8c-6.7,0.6-13.8,1.3-20.7,2
		l33.3-64.9L700.5,181.8z"/>
	<path style="fill:#FFFFFF;" d="M351.6,259.4c-3.1,0.2-78,6-202.2,32.7c-0.6,0.1-1.2,0.3-1.8,0.5c-3.2-0.5-5.7-1.6-7.4-3.1
		c-7.6-7.1,0.1-25.2,0.1-25.2c0.3-0.7,0.6-1.3,0.8-2l61.9-172.3c3.7-10.4-2-17.8-12.7-16.7c0,0-0.1,0-0.1,0
		c-10.8,1.2-22.6,10.5-26.3,20.9l-22.7,63.3l-32.8,3.9l22.4-61.5c3.8-10.4-1.9-17.9-12.7-16.8c-10.8,1.1-22.6,10.5-26.4,20.8
		l-22.6,62.2l-5.8,0.7c-10.9,1.3-22.6,10.8-26.2,21.1c-3.6,10.3,2.2,17.6,12.8,16.5c0.1,0,0.2,0,0.4,0l5.1-0.6l-23.3,64
		c-3.8,10.4,1.9,17.9,12.7,16.8c10.8-1.1,22.6-10.5,26.4-20.8L94.7,199l33-4l-25.4,70.6c-3.1,7.2-15.2,38.5,2.5,55.4
		c8.4,8.1,21.8,11.1,39.9,9.3c12.3-1.3,26.9-4.9,43.6-10.8c102.8-20.6,165.1-25.4,165.8-25.4c9.6-0.7,16.8-9.1,16.1-18.7
		C369.6,265.8,361.2,258.7,351.6,259.4z"/>
</g>
</svg>
