<?xml version="1.0" encoding="utf-8"?>
<!-- Generator: Adobe Illustrator 23.0.2, SVG Export Plug-In . SVG Version: 6.00 Build 0)  -->
<svg version="1.1" id="Ebene_1" xmlns="http://www.w3.org/2000/svg" xmlns:xlink="http://www.w3.org/1999/xlink" x="0px" y="0px"
	 viewBox="0 0 750.5 180.5" style="enable-background:new 0 0 750.5 180.5;" xml:space="preserve">
<style type="text/css">
	.st0{clip-path:url(#SVGID_2_);fill:#FFFFFF;}
	.st1{clip-path:url(#SVGID_4_);fill:#FFFFFF;}
	.st2{clip-path:url(#SVGID_6_);fill:#FFFFFF;}
	.st3{clip-path:url(#SVGID_8_);fill:#FFFFFF;}
	.st4{clip-path:url(#SVGID_10_);fill:#FFFFFF;}
	.st5{clip-path:url(#SVGID_12_);fill:#FBB03B;}
	.st6{clip-path:url(#SVGID_14_);fill:#FBB03B;}
	.st7{clip-path:url(#SVGID_16_);fill:#FFFFFF;}
	.st8{clip-path:url(#SVGID_18_);fill:#FFFFFF;}
	.st9{clip-path:url(#SVGID_20_);fill:#FFFFFF;}
	.st10{clip-path:url(#SVGID_22_);fill:#FFFFFF;}
	.st11{clip-path:url(#SVGID_24_);fill:#FFFFFF;}
	.st12{clip-path:url(#SVGID_26_);fill:#FFFFFF;}
	.st13{clip-path:url(#SVGID_28_);fill:#FFFFFF;}
</style>
<g>
	<g>
		<g>
			<defs>
				<rect id="SVGID_1_" x="-125" y="-415" width="1000" height="1000"/>
			</defs>
			<clipPath id="SVGID_2_">
				<use xlink:href="#SVGID_1_"  style="overflow:visible;"/>
			</clipPath>
			<path class="st0" d="M19.3,23.8h13.3v106.8h63.9v24.1H5.9V37.9C5.9,30.3,11.8,23.8,19.3,23.8"/>
		</g>
	</g>
	<g>
		<g>
			<defs>
				<rect id="SVGID_3_" x="-125" y="-415" width="1000" height="1000"/>
			</defs>
			<clipPath id="SVGID_4_">
				<use xlink:href="#SVGID_3_"  style="overflow:visible;"/>
			</clipPath>
			<path class="st1" d="M382.1,23.8L345,154.7h-25.6L299.1,54.4l-20.4,100.3H253L215.6,23.8h27.9l22.1,92.2l19.2-92.2h28.5
				l18.9,92.2l19.8-82c2.3-6.7,6.7-10.2,13.5-10.2L382.1,23.8L382.1,23.8z"/>
		</g>
	</g>
	<g>
		<g>
			<defs>
				<rect id="SVGID_5_" x="-125" y="-415" width="1000" height="1000"/>
			</defs>
			<clipPath id="SVGID_6_">
				<use xlink:href="#SVGID_5_"  style="overflow:visible;"/>
			</clipPath>
			<path class="st2" d="M504.7,89.2c0,32.1-13.9,56-39.1,62.7c-6.5,1.7-15.8,2.7-27.7,2.7h-44.1V37.9c0-9,4.4-13.9,13.5-14H445
				C486.6,23.8,504.7,47.5,504.7,89.2 M445,46.7h-24.8V131h21.4c26.6,0,35.8-14.2,35.8-41.8C477.4,63.1,469.3,46.7,445,46.7"/>
		</g>
	</g>
	<g>
		<g>
			<defs>
				<rect id="SVGID_7_" x="-125" y="-415" width="1000" height="1000"/>
			</defs>
			<clipPath id="SVGID_8_">
				<use xlink:href="#SVGID_7_"  style="overflow:visible;"/>
			</clipPath>
			<path class="st3" d="M521.7,37.9c0-9,4.4-13.9,13.5-14h81.2v22.7H548v28.1h51v8.7c0.2,9-4.4,13.5-13.9,13.5H548v33.9h68.3v24.1
				h-94.7L521.7,37.9L521.7,37.9z"/>
		</g>
	</g>
	<g>
		<g>
			<defs>
				<rect id="SVGID_9_" x="-125" y="-415" width="1000" height="1000"/>
			</defs>
			<clipPath id="SVGID_10_">
				<use xlink:href="#SVGID_9_"  style="overflow:visible;"/>
			</clipPath>
			<path class="st4" d="M744.1,89.2c0,32.1-13.9,56-39.1,62.7c-6.5,1.7-15.8,2.7-27.7,2.7h-44.1V37.9c0-9,4.4-13.9,13.5-14h37.7
				C726.1,23.8,744.1,47.5,744.1,89.2 M684.5,46.7h-24.8V131H681c26.6,0,35.8-14.2,35.8-41.8C716.8,63.1,708.7,46.7,684.5,46.7"/>
		</g>
	</g>
	<g>
		<g>
			<defs>
				<rect id="SVGID_11_" x="-125" y="-415" width="1000" height="1000"/>
			</defs>
			<clipPath id="SVGID_12_">
				<use xlink:href="#SVGID_11_"  style="overflow:visible;"/>
			</clipPath>
			<path class="st5" d="M102,64.4c0.2,26,20.8,45.1,45.4,44.9h1.1v53.2h-2.8c-0.2-0.4-0.2-0.7-0.5-1c-7.4-9.2-15.1-18.1-22.1-27.6
				c-8.9-12-17.1-24.5-24-37.9c-3.8-7.2-7.1-14.5-8.6-22.7c-1.6-9.2-0.6-18.1,2-26.7c2.1-7,5.7-13.4,10.6-19.1
				c8.3-9.6,18.2-16.2,30.3-18.8c0,0,6.6-1.2,15-1.1v11.4H147C121.2,19,101.8,39.2,102,64.4"/>
		</g>
	</g>
	<g>
		<g>
			<defs>
				<rect id="SVGID_13_" x="-125" y="-415" width="1000" height="1000"/>
			</defs>
			<clipPath id="SVGID_14_">
				<use xlink:href="#SVGID_13_"  style="overflow:visible;"/>
			</clipPath>
			<path class="st6" d="M200.4,84.9c-3.7,8.2-7.9,16.3-12.7,24c-6.1,9.8-12.6,19.2-19.3,28.5c-5.6,7.7-11.8,15-17.7,22.5
				c-0.7,0.9-1.4,1.8-2.1,2.7v-53.2c24.7-0.8,43.3-20.4,43.9-45.5c-0.7-25-19.4-44.2-43.9-44.9V7.5c3,0,6.2,0.2,9.5,0.6
				c0.6,0.1,1.3,0.2,1.9,0.3c0.9,0.1,1.8,0.3,2.7,0.5c0.5,0.1,1,0.3,1.5,0.4c6.7,2.3,13.1,5.5,18.7,10
				c12.8,10.2,19.7,23.8,21.5,39.8C205.3,67.9,204,76.8,200.4,84.9"/>
		</g>
	</g>
	<g>
		<g>
			<defs>
				<rect id="SVGID_15_" x="-125" y="-415" width="1000" height="1000"/>
			</defs>
			<clipPath id="SVGID_16_">
				<use xlink:href="#SVGID_15_"  style="overflow:visible;"/>
			</clipPath>
			<path class="st7" d="M188.8,71.4c0-0.6-0.6-4.6-0.7-5c-0.1-0.4-0.2-0.5-0.1-0.7c0.1-0.2,0.4-0.7,0-1c-0.3-0.3-7.4-4.1-12.5-4.7
				c-5.2-0.7-10.5-0.8-10.5-0.8l-12.8-5.8c0,0-5.2-1.6-12.1-1.4c-7,0.2-11.3,1.1-13,1.3c-1.7,0.2-15.2,4.6-16.6,4.8
				c-1.4,0.2-2.2-0.1-2.4,0.7c-0.2,0.8-0.7,3.7-0.5,5c0,0-0.8,1.1-0.4,2.5c0.5,1.4,0.9,2,1,3.2c0.1,1.1-0.1,2.1,0.2,2.3
				c0.3,0.2,4.7,0.3,4.7,0.3s-1.2-4.4,2-7.5c1.9-2,6.5-4.3,11.5,0.4c0,0,2.6,3.9,1.4,9l39.3,0.1c0,0-0.3-3.2-0.1-5s1.9-6.4,8-6.6
				c3.2,0,9,2.2,5.9,11.9c0,0,5.5-0.2,6.3-0.4c0.9-0.2,0.9-0.3,0.8-0.4c-0.1-0.2-0.4-0.4-0.3-0.6C187.8,72.6,188.8,71.9,188.8,71.4
				 M146.7,55.1l7,4l-16.1-0.8l-0.8-2.8C137,55.6,146.7,55.1,146.7,55.1 M132.8,55.9l0.3,1.6l-2.5-0.1
				C130.7,57.3,132.8,55.9,132.8,55.9 M159.7,70.7c-0.8,0-23.4-0.9-23.4-0.9l-2.1,1.3h-2.4l-1-3l29.9,1.5
				C160.8,69.6,160.6,70.7,159.7,70.7"/>
		</g>
	</g>
	<g>
		<g>
			<defs>
				<rect id="SVGID_17_" x="-125" y="-415" width="1000" height="1000"/>
			</defs>
			<clipPath id="SVGID_18_">
				<use xlink:href="#SVGID_17_"  style="overflow:visible;"/>
			</clipPath>
			<polygon class="st8" points="123.3,69.5 126.3,69.7 126.3,70.1 123.5,70.3 			"/>
		</g>
	</g>
	<g>
		<g>
			<defs>
				<rect id="SVGID_19_" x="-125" y="-415" width="1000" height="1000"/>
			</defs>
			<clipPath id="SVGID_20_">
				<use xlink:href="#SVGID_19_"  style="overflow:visible;"/>
			</clipPath>
			<polygon class="st9" points="123.1,70.6 125.7,72.1 125.6,72.5 122.9,71.4 			"/>
		</g>
	</g>
	<g>
		<g>
			<defs>
				<rect id="SVGID_21_" x="-125" y="-415" width="1000" height="1000"/>
			</defs>
			<clipPath id="SVGID_22_">
				<use xlink:href="#SVGID_21_"  style="overflow:visible;"/>
			</clipPath>
			<path class="st10" d="M120.5,62.6c-3.9,0-7,3.1-7,7c0,3.9,3.1,7,7,7c3.9,0,7-3.1,7-7C127.5,65.8,124.4,62.6,120.5,62.6
				 M122.4,67.5c-0.1-0.1-0.3-0.2-0.4-0.3h0l0.7-2.5c0.6,0.3,1.1,0.6,1.6,1.1L122.4,67.5z M119.6,69.6c0-0.5,0.4-0.9,0.9-0.9
				s0.9,0.4,0.9,0.9c0,0.5-0.4,0.9-0.9,0.9C120,70.5,119.6,70.1,119.6,69.6 M122.3,64.6l-0.9,2.3c-0.3-0.1-0.5-0.1-0.8-0.1
				c-0.3,0-0.6,0-0.8,0.1l-1.4-2.1c0.7-0.3,1.4-0.5,2.2-0.5C121.2,64.3,121.8,64.4,122.3,64.6 M118,64.9l1.1,2.2
				c-0.2,0.1-0.3,0.2-0.4,0.3l-2.1-1.4C116.9,65.6,117.4,65.2,118,64.9 M116.2,66.5l1.9,1.6c-0.3,0.5-0.5,1-0.5,1.6v0l-2.4,0.6
				c0-0.2,0-0.4,0-0.7C115.2,68.4,115.6,67.3,116.2,66.5 M115.3,70.7l2.5-0.3c0,0.2,0.1,0.4,0.2,0.5l-1.9,1.6
				C115.6,71.9,115.4,71.3,115.3,70.7 M116.2,72.8l2.1-1.3c0.4,0.4,0.8,0.7,1.3,0.9l-0.1,2.5C118.2,74.6,117,73.9,116.2,72.8
				 M119.9,75l0.5-2.5c0,0,0.1,0,0.1,0c0.1,0,0.3,0,0.4,0l0,0l0.9,2.4c-0.4,0.1-0.8,0.2-1.3,0.2C120.3,75,120.1,75,119.9,75
				 M122.2,74.7l-0.6-2.4c1-0.4,1.8-1.5,1.8-2.7c0-0.6-0.2-1.1-0.5-1.6l1.6-2c0.8,0.9,1.3,2.2,1.3,3.5C125.9,72,124.4,74,122.2,74.7
				"/>
		</g>
	</g>
	<g>
		<g>
			<defs>
				<rect id="SVGID_23_" x="-125" y="-415" width="1000" height="1000"/>
			</defs>
			<clipPath id="SVGID_24_">
				<use xlink:href="#SVGID_23_"  style="overflow:visible;"/>
			</clipPath>
			<path class="st11" d="M121.2,69.6c0-0.4-0.3-0.7-0.7-0.7s-0.7,0.3-0.7,0.7c0,0.4,0.3,0.7,0.7,0.7C120.9,70.3,121.2,70,121.2,69.6
				"/>
		</g>
	</g>
	<g>
		<g>
			<defs>
				<rect id="SVGID_25_" x="-125" y="-415" width="1000" height="1000"/>
			</defs>
			<clipPath id="SVGID_26_">
				<use xlink:href="#SVGID_25_"  style="overflow:visible;"/>
			</clipPath>
			<path class="st12" d="M174.4,63.2c-3.7,0-6.6,3-6.6,6.6s3,6.6,6.6,6.6c3.7,0,6.6-3,6.6-6.6C181,66.2,178,63.2,174.4,63.2
				 M176.2,67.8c-0.1-0.1-0.2-0.2-0.4-0.3h0l0.6-2.3c0.6,0.2,1.1,0.6,1.5,1L176.2,67.8z M173.5,69.8c0-0.5,0.4-0.9,0.9-0.9
				c0.5,0,0.9,0.4,0.9,0.9s-0.4,0.9-0.9,0.9C173.9,70.7,173.5,70.3,173.5,69.8 M176.1,65l-0.9,2.2c-0.3-0.1-0.5-0.1-0.8-0.1
				c-0.3,0-0.5,0-0.8,0.1l-1.3-2c0.6-0.3,1.3-0.5,2.1-0.5C175,64.8,175.5,64.9,176.1,65 M171.9,65.4l1,2.1c-0.1,0.1-0.3,0.2-0.4,0.3
				l-2-1.3C170.9,66.1,171.4,65.7,171.9,65.4 M170.3,66.8l1.8,1.5c-0.3,0.4-0.4,0.9-0.4,1.5c0,0,0,0,0,0l-2.3,0.6c0-0.2,0-0.4,0-0.6
				C169.3,68.7,169.7,67.7,170.3,66.8 M169.4,70.8l2.3-0.3c0,0.2,0.1,0.3,0.2,0.5l-1.8,1.5C169.8,72,169.5,71.4,169.4,70.8
				 M170.3,72.9l2-1.3c0.3,0.4,0.8,0.7,1.3,0.8l-0.1,2.4C172.2,74.6,171,73.9,170.3,72.9 M173.8,74.9l0.4-2.3c0,0,0.1,0,0.1,0
				c0.1,0,0.2,0,0.4,0l0,0l0.9,2.2c-0.4,0.1-0.8,0.1-1.2,0.1C174.2,74.9,174,74.9,173.8,74.9 M176,74.6l-0.6-2.3
				c1-0.4,1.7-1.4,1.7-2.5c0-0.6-0.2-1.1-0.5-1.5l1.5-1.9c0.8,0.9,1.3,2.1,1.3,3.4C179.5,72.1,178,74,176,74.6"/>
		</g>
	</g>
	<g>
		<g>
			<defs>
				<rect id="SVGID_27_" x="-125" y="-415" width="1000" height="1000"/>
			</defs>
			<clipPath id="SVGID_28_">
				<use xlink:href="#SVGID_27_"  style="overflow:visible;"/>
			</clipPath>
			<path class="st13" d="M175,69.8c0-0.3-0.3-0.6-0.6-0.6s-0.6,0.3-0.6,0.6c0,0.3,0.3,0.6,0.6,0.6S175,70.2,175,69.8"/>
		</g>
	</g>
</g>
</svg>
