<?xml version="1.0" encoding="utf-8"?>
<!-- Generator: Adobe Illustrator 16.0.0, SVG Export Plug-In . SVG Version: 6.00 Build 0)  -->
<!DOCTYPE svg PUBLIC "-//W3C//DTD SVG 1.1//EN" "http://www.w3.org/Graphics/SVG/1.1/DTD/svg11.dtd">
<svg version="1.1" id="Ebene_1" xmlns="http://www.w3.org/2000/svg" xmlns:xlink="http://www.w3.org/1999/xlink" x="0px" y="0px"
	 width="750.5px" height="180.5px" viewBox="125 415 750.5 180.5" enable-background="new 125 415 750.5 180.5"
	 xml:space="preserve">
<g>
	<g>
		<defs>
			<rect id="SVGID_1_" x="0" y="0" width="1000" height="1000"/>
		</defs>
		<clipPath id="SVGID_2_">
			<use xlink:href="#SVGID_1_"  overflow="visible"/>
		</clipPath>
		<path clip-path="url(#SVGID_2_)" fill="#FFFFFF" d="M144.325,438.806h13.28v106.814H221.5v24.06h-90.646V452.856
			C130.854,445.348,136.821,438.806,144.325,438.806"/>
	</g>
	<g>
		<defs>
			<rect id="SVGID_3_" x="0" y="0" width="1000" height="1000"/>
		</defs>
		<clipPath id="SVGID_4_">
			<use xlink:href="#SVGID_3_"  overflow="visible"/>
		</clipPath>
		<path clip-path="url(#SVGID_4_)" fill="#FFFFFF" d="M507.102,438.806L469.955,569.68h-25.597L424.15,469.407L403.748,569.68
			h-25.787l-37.339-130.874h27.906l22.131,92.188l19.249-92.188h28.483l18.86,92.188l19.825-81.988
			c2.31-6.733,6.736-10.199,13.471-10.199H507.102z"/>
	</g>
	<g>
		<defs>
			<rect id="SVGID_5_" x="0" y="0" width="1000" height="1000"/>
		</defs>
		<clipPath id="SVGID_6_">
			<use xlink:href="#SVGID_5_"  overflow="visible"/>
		</clipPath>
		<path clip-path="url(#SVGID_6_)" fill="#FFFFFF" d="M629.709,504.244c0,32.141-13.859,56.004-39.071,62.74
			c-6.542,1.733-15.78,2.695-27.715,2.695h-44.071V452.855c0-9.046,4.423-13.855,13.47-14.05h37.724
			C611.615,438.806,629.709,462.479,629.709,504.244 M570.045,461.709h-24.826v84.298h21.359c26.563,0,35.801-14.241,35.801-41.763
			C602.379,478.067,594.295,461.709,570.045,461.709"/>
	</g>
	<g>
		<defs>
			<rect id="SVGID_7_" x="0" y="0" width="1000" height="1000"/>
		</defs>
		<clipPath id="SVGID_8_">
			<use xlink:href="#SVGID_7_"  overflow="visible"/>
		</clipPath>
		<path clip-path="url(#SVGID_8_)" fill="#FFFFFF" d="M646.651,452.856c0-9.046,4.428-13.856,13.476-14.05h81.218v22.711H673.02
			v28.097h51.003v8.66c0.19,9.047-4.428,13.476-13.855,13.476H673.02v33.871h68.324v24.06h-94.692L646.651,452.856L646.651,452.856z
			"/>
	</g>
	<g>
		<defs>
			<rect id="SVGID_9_" x="0" y="0" width="1000" height="1000"/>
		</defs>
		<clipPath id="SVGID_10_">
			<use xlink:href="#SVGID_9_"  overflow="visible"/>
		</clipPath>
		<path clip-path="url(#SVGID_10_)" fill="#FFFFFF" d="M869.146,504.244c0,32.141-13.859,56.004-39.071,62.74
			c-6.542,1.733-15.78,2.695-27.715,2.695h-44.071V452.855c0-9.046,4.424-13.855,13.471-14.05h37.724
			C851.053,438.806,869.146,462.479,869.146,504.244 M809.481,461.709h-24.826v84.298h21.36c26.563,0,35.8-14.241,35.8-41.763
			C841.815,478.067,833.731,461.709,809.481,461.709"/>
	</g>
	<g>
		<defs>
			<rect id="SVGID_11_" x="0" y="0" width="1000" height="1000"/>
		</defs>
		<clipPath id="SVGID_12_">
			<use xlink:href="#SVGID_11_"  overflow="visible"/>
		</clipPath>
		<path clip-path="url(#SVGID_12_)" fill="#FBB03B" d="M226.962,479.402c0.235,26.032,20.833,45.067,45.418,44.871h1.135v53.236
			h-2.775c-0.156-0.354-0.235-0.743-0.469-1.018c-7.389-9.186-15.087-18.135-22.084-27.595c-8.911-12-17.12-24.507-23.96-37.875
			c-3.752-7.229-7.075-14.54-8.56-22.748c-1.643-9.185-0.626-18.058,1.954-26.735c2.111-7.035,5.706-13.445,10.553-19.074
			c8.286-9.575,18.215-16.182,30.292-18.839c0,0,6.645-1.174,15.049-1.135v11.414h-1.524
			C246.154,433.984,226.768,454.192,226.962,479.402"/>
	</g>
	<g>
		<defs>
			<rect id="SVGID_13_" x="0" y="0" width="1000" height="1000"/>
		</defs>
		<clipPath id="SVGID_14_">
			<use xlink:href="#SVGID_13_"  overflow="visible"/>
		</clipPath>
		<path clip-path="url(#SVGID_14_)" fill="#FBB03B" d="M325.383,499.923c-3.674,8.247-7.936,16.298-12.664,23.959
			c-6.059,9.771-12.586,19.19-19.349,28.456c-5.589,7.737-11.803,15.047-17.745,22.513c-0.703,0.898-1.406,1.759-2.109,2.658
			v-53.236c24.702-0.781,43.346-20.402,43.854-45.456c-0.741-24.977-19.386-44.246-43.854-44.911v-11.413
			c3.009,0,6.214,0.157,9.458,0.586c0.626,0.117,1.251,0.196,1.916,0.313c0.898,0.117,1.798,0.273,2.657,0.469
			c0.508,0.117,0.978,0.273,1.485,0.43c6.723,2.346,13.056,5.473,18.684,9.968c12.78,10.24,19.659,23.765,21.536,39.828
			C330.268,482.921,329.017,491.793,325.383,499.923"/>
	</g>
	<g>
		<defs>
			<rect id="SVGID_15_" x="0" y="0" width="1000" height="1000"/>
		</defs>
		<clipPath id="SVGID_16_">
			<use xlink:href="#SVGID_15_"  overflow="visible"/>
		</clipPath>
		<path clip-path="url(#SVGID_16_)" fill="#FFFFFF" d="M313.768,486.362c0-0.557-0.599-4.626-0.726-4.99
			c-0.129-0.362-0.194-0.532-0.073-0.701c0.121-0.171,0.351-0.739,0.023-1.007c-0.327-0.266-7.363-4.093-12.547-4.746
			c-5.184-0.654-10.513-0.824-10.513-0.824l-12.767-5.813c0,0-5.159-1.623-12.135-1.381c-6.977,0.242-11.337,1.09-13.008,1.284
			c-1.672,0.193-15.19,4.626-16.63,4.845c-1.441,0.217-2.24-0.146-2.409,0.678c-0.17,0.823-0.703,3.658-0.509,4.967
			c0,0-0.849,1.102-0.376,2.481c0.473,1.381,0.872,2.035,1.018,3.173c0.146,1.14-0.061,2.132,0.218,2.303
			c0.279,0.169,4.688,0.254,4.688,0.254s-1.163-4.409,1.962-7.533c1.914-1.962,6.516-4.336,11.481,0.412
			c0,0,2.641,3.912,1.368,9.004l39.254,0.079c0,0-0.327-3.234-0.097-4.966c0.23-1.732,1.854-6.407,8.005-6.553
			c3.175-0.048,9.03,2.229,5.868,11.875c0,0,5.451-0.235,6.342-0.417c0.89-0.182,0.859-0.267,0.774-0.437
			c-0.085-0.169-0.387-0.363-0.303-0.569C312.763,487.574,313.768,486.92,313.768,486.362 M271.718,470.072l7.024,4.046
			l-16.06-0.774l-0.775-2.786C261.979,470.557,271.718,470.072,271.718,470.072 M257.802,470.908l0.254,1.623l-2.458-0.097
			C255.657,472.349,257.802,470.908,257.802,470.908 M284.719,485.66c-0.837,0-23.382-0.854-23.382-0.854l-2.071,1.308h-2.398
			l-1.017-2.979l29.902,1.471C285.754,484.606,285.554,485.66,284.719,485.66"/>
	</g>
	<g>
		<defs>
			<rect id="SVGID_17_" x="0" y="0" width="1000" height="1000"/>
		</defs>
		<clipPath id="SVGID_18_">
			<use xlink:href="#SVGID_17_"  overflow="visible"/>
		</clipPath>
		<polygon clip-path="url(#SVGID_18_)" fill="#FFFFFF" points="248.294,484.477 251.318,484.688 251.322,485.107 248.516,485.265 		
			"/>
	</g>
	<g>
		<defs>
			<rect id="SVGID_19_" x="0" y="0" width="1000" height="1000"/>
		</defs>
		<clipPath id="SVGID_20_">
			<use xlink:href="#SVGID_19_"  overflow="visible"/>
		</clipPath>
		<polygon clip-path="url(#SVGID_20_)" fill="#FFFFFF" points="248.071,485.612 250.73,487.067 250.559,487.45 247.943,486.422 		
			"/>
	</g>
	<g>
		<defs>
			<rect id="SVGID_21_" x="0" y="0" width="1000" height="1000"/>
		</defs>
		<clipPath id="SVGID_22_">
			<use xlink:href="#SVGID_21_"  overflow="visible"/>
		</clipPath>
		<path clip-path="url(#SVGID_22_)" fill="#FFFFFF" d="M245.532,477.631c-3.862,0-6.994,3.131-6.994,6.994
			c0,3.862,3.132,6.993,6.994,6.993c3.863,0,6.995-3.131,6.995-6.993C252.527,480.761,249.395,477.631,245.532,477.631
			 M247.446,482.476c-0.126-0.112-0.261-0.213-0.405-0.302h0.001l0.657-2.459c0.584,0.259,1.114,0.618,1.566,1.057L247.446,482.476z
			 M244.635,484.625c0-0.495,0.401-0.897,0.897-0.897s0.898,0.402,0.898,0.897c0,0.496-0.402,0.898-0.898,0.898
			C245.036,485.522,244.635,485.121,244.635,484.625 M247.308,479.561l-0.942,2.309c-0.264-0.079-0.544-0.123-0.834-0.123
			c-0.285,0-0.561,0.042-0.822,0.12l-1.387-2.132c0.674-0.305,1.421-0.477,2.209-0.477
			C246.155,479.258,246.752,479.365,247.308,479.561 M242.957,479.916l1.088,2.245c-0.158,0.097-0.306,0.206-0.441,0.329
			l-2.146-1.354C241.878,480.645,242.385,480.229,242.957,479.916 M241.201,481.459l1.927,1.587
			c-0.299,0.452-0.474,0.995-0.474,1.579v0.008l-2.446,0.649c-0.026-0.215-0.042-0.434-0.042-0.657
			C240.166,483.439,240.552,482.344,241.201,481.459 M240.271,485.683l2.476-0.333c0.047,0.18,0.11,0.354,0.189,0.519l-1.948,1.609
			C240.648,486.937,240.4,486.332,240.271,485.683 M241.22,487.818l2.113-1.338c0.35,0.414,0.813,0.729,1.344,0.893l-0.146,2.523
			C243.181,489.642,242.01,488.882,241.22,487.818 M244.941,489.959l0.457-2.459c0.044,0.002,0.089,0.002,0.134,0.002
			c0.131,0,0.259-0.009,0.385-0.025l-0.011,0.007l0.92,2.351c-0.414,0.102-0.847,0.156-1.294,0.156
			C245.333,489.99,245.136,489.979,244.941,489.959 M247.233,489.715l-0.612-2.426c1.049-0.429,1.789-1.461,1.789-2.664
			c0-0.589-0.177-1.136-0.479-1.592l1.624-1.959c0.836,0.946,1.344,2.188,1.344,3.55
			C250.899,486.993,249.363,489.004,247.233,489.715"/>
	</g>
	<g>
		<defs>
			<rect id="SVGID_23_" x="0" y="0" width="1000" height="1000"/>
		</defs>
		<clipPath id="SVGID_24_">
			<use xlink:href="#SVGID_23_"  overflow="visible"/>
		</clipPath>
		<path clip-path="url(#SVGID_24_)" fill="#FFFFFF" d="M246.19,484.625c0-0.362-0.295-0.657-0.658-0.657s-0.658,0.295-0.658,0.657
			c0,0.363,0.295,0.658,0.658,0.658C245.896,485.283,246.19,484.987,246.19,484.625"/>
	</g>
	<g>
		<defs>
			<rect id="SVGID_25_" x="0" y="0" width="1000" height="1000"/>
		</defs>
		<clipPath id="SVGID_26_">
			<use xlink:href="#SVGID_25_"  overflow="visible"/>
		</clipPath>
		<path clip-path="url(#SVGID_26_)" fill="#FFFFFF" d="M299.378,478.212c-3.655,0-6.618,2.963-6.618,6.617s2.963,6.617,6.618,6.617
			c3.654,0,6.617-2.963,6.617-6.617C305.995,481.176,303.032,478.212,299.378,478.212 M301.188,482.796
			c-0.119-0.106-0.247-0.201-0.384-0.285h0.001l0.622-2.326c0.553,0.244,1.054,0.584,1.481,0.999L301.188,482.796z M298.528,484.83
			c0-0.47,0.38-0.85,0.85-0.85c0.469,0,0.85,0.38,0.85,0.85s-0.381,0.85-0.85,0.85C298.908,485.679,298.528,485.299,298.528,484.83
			 M301.057,480.038l-0.892,2.186c-0.25-0.076-0.514-0.117-0.788-0.117c-0.271,0-0.531,0.04-0.778,0.114l-1.313-2.018
			c0.637-0.289,1.346-0.45,2.09-0.45C299.967,479.752,300.531,479.853,301.057,480.038 M296.941,480.375l1.028,2.125
			c-0.149,0.09-0.289,0.193-0.418,0.311l-2.03-1.282C295.92,481.063,296.4,480.671,296.941,480.375 M295.279,481.834l1.823,1.5
			c-0.283,0.43-0.448,0.943-0.448,1.496c0,0.002,0,0.004,0,0.007l-2.315,0.615c-0.024-0.204-0.04-0.411-0.04-0.622
			C294.299,483.709,294.664,482.673,295.279,481.834 M294.399,485.831l2.342-0.314c0.045,0.17,0.105,0.334,0.18,0.49l-1.844,1.522
			C294.756,487.017,294.522,486.443,294.399,485.831 M295.298,487.852l1.999-1.267c0.331,0.392,0.77,0.688,1.271,0.845l-0.138,2.387
			C297.152,489.576,296.043,488.856,295.298,487.852 M298.818,489.875l0.432-2.325c0.043,0.002,0.084,0.003,0.128,0.003
			c0.122,0,0.244-0.01,0.362-0.025l-0.009,0.007l0.87,2.224c-0.393,0.097-0.802,0.149-1.224,0.149
			C299.188,489.907,299.003,489.895,298.818,489.875 M300.986,489.645l-0.58-2.294c0.994-0.407,1.694-1.382,1.694-2.521
			c0-0.557-0.167-1.073-0.454-1.506l1.537-1.853c0.791,0.895,1.271,2.069,1.271,3.358
			C304.454,487.07,303.002,488.972,300.986,489.645"/>
	</g>
	<g>
		<defs>
			<rect id="SVGID_27_" x="0" y="0" width="1000" height="1000"/>
		</defs>
		<clipPath id="SVGID_28_">
			<use xlink:href="#SVGID_27_"  overflow="visible"/>
		</clipPath>
		<path clip-path="url(#SVGID_28_)" fill="#FFFFFF" d="M300,484.829c0-0.344-0.278-0.622-0.622-0.622s-0.622,0.278-0.622,0.622
			c0,0.345,0.278,0.623,0.622,0.623S300,485.174,300,484.829"/>
	</g>
</g>
</svg>
