<?xml version="1.0" encoding="utf-8"?>
<!-- Generator: Adobe Illustrator 16.0.0, SVG Export Plug-In . SVG Version: 6.00 Build 0)  -->
<!DOCTYPE svg PUBLIC "-//W3C//DTD SVG 1.1//EN" "http://www.w3.org/Graphics/SVG/1.1/DTD/svg11.dtd">
<svg version="1.1" id="Ebene_1" xmlns="http://www.w3.org/2000/svg" xmlns:xlink="http://www.w3.org/1999/xlink" x="0px" y="0px"
	 width="1000px" height="1000px" viewBox="0 0 1000 1000" enable-background="new 0 0 1000 1000" xml:space="preserve">
<g>
	<defs>
		<rect id="SVGID_1_" width="1000" height="1000"/>
	</defs>
	<clipPath id="SVGID_2_">
		<use xlink:href="#SVGID_1_"  overflow="visible"/>
	</clipPath>
	<path clip-path="url(#SVGID_2_)" fill="#FFFFFF" d="M144.325,438.806h13.28v106.815H221.5v24.059h-90.646V452.856
		C130.854,445.348,136.821,438.806,144.325,438.806"/>
	<path clip-path="url(#SVGID_2_)" fill="#FFFFFF" d="M507.102,438.806L469.955,569.68h-25.597L424.15,469.407L403.748,569.68H377.96
		l-37.338-130.874h27.906l22.131,92.188l19.249-92.188h28.483l18.86,92.188l19.826-81.989c2.309-6.733,6.736-10.199,13.47-10.199
		H507.102z"/>
	<path clip-path="url(#SVGID_2_)" fill="#FFFFFF" d="M629.708,504.244c0,32.14-13.859,56.004-39.071,62.74
		c-6.542,1.733-15.78,2.695-27.715,2.695h-44.071V452.855c0-9.046,4.423-13.856,13.47-14.05h37.724
		C611.615,438.806,629.708,462.479,629.708,504.244 M570.044,461.708h-24.826v84.298h21.36c26.563,0,35.8-14.241,35.8-41.762
		C602.378,478.067,594.294,461.708,570.044,461.708"/>
	<path clip-path="url(#SVGID_2_)" fill="#FFFFFF" d="M646.651,452.856c0-9.046,4.428-13.856,13.475-14.05h81.218v22.711H673.02
		v28.097h51.003v8.66c0.19,9.047-4.428,13.475-13.855,13.475H673.02v33.872h68.324v24.059h-94.692V452.856z"/>
	<path clip-path="url(#SVGID_2_)" fill="#FFFFFF" d="M869.146,504.244c0,32.14-13.859,56.004-39.071,62.74
		c-6.542,1.733-15.78,2.695-27.715,2.695h-44.071V452.855c0-9.046,4.423-13.856,13.47-14.05h37.724
		C851.053,438.806,869.146,462.479,869.146,504.244 M809.481,461.708h-24.826v84.298h21.36c26.563,0,35.8-14.241,35.8-41.762
		C841.815,478.067,833.731,461.708,809.481,461.708"/>
	<path clip-path="url(#SVGID_2_)" fill="#FBB03B" d="M226.962,479.402c0.235,26.032,20.833,45.067,45.418,44.871h1.134v53.236
		h-2.775c-0.156-0.353-0.235-0.743-0.469-1.017c-7.388-9.186-15.087-18.135-22.084-27.595c-8.911-12-17.12-24.507-23.96-37.875
		c-3.752-7.23-7.075-14.54-8.559-22.748c-1.643-9.185-0.626-18.058,1.954-26.735c2.111-7.036,5.706-13.446,10.553-19.075
		c8.286-9.575,18.214-16.181,30.292-18.839c0,0,6.644-1.173,15.048-1.134v11.414h-1.524
		C246.154,433.984,226.768,454.192,226.962,479.402"/>
	<path clip-path="url(#SVGID_2_)" fill="#FBB03B" d="M325.382,499.922c-3.674,8.247-7.935,16.298-12.664,23.959
		c-6.058,9.771-12.586,19.191-19.348,28.456c-5.589,7.738-11.803,15.047-17.745,22.513c-0.703,0.899-1.407,1.759-2.11,2.658v-53.236
		c24.702-0.781,43.346-20.402,43.854-45.456c-0.742-24.977-19.386-44.246-43.854-44.911v-11.413c3.009,0,6.214,0.157,9.458,0.586
		c0.626,0.117,1.251,0.196,1.916,0.313c0.899,0.117,1.798,0.274,2.658,0.469c0.507,0.117,0.977,0.273,1.485,0.43
		c6.723,2.345,13.055,5.472,18.683,9.967c12.781,10.241,19.66,23.765,21.537,39.829C330.268,482.92,329.017,491.792,325.382,499.922
		"/>
	<path clip-path="url(#SVGID_2_)" fill="#FFFFFF" d="M313.768,486.362c0-0.557-0.599-4.626-0.726-4.99
		c-0.128-0.363-0.194-0.533-0.073-0.702c0.121-0.17,0.351-0.739,0.024-1.006c-0.327-0.266-7.364-4.093-12.547-4.747
		c-5.184-0.654-10.513-0.824-10.513-0.824l-12.766-5.813c0,0-5.159-1.623-12.135-1.381c-6.977,0.242-11.337,1.09-13.008,1.284
		c-1.672,0.194-15.19,4.626-16.63,4.845c-1.441,0.217-2.24-0.146-2.409,0.678c-0.17,0.823-0.703,3.658-0.509,4.966
		c0,0-0.848,1.102-0.376,2.482c0.473,1.381,0.872,2.035,1.018,3.173c0.145,1.139-0.061,2.132,0.218,2.302
		c0.279,0.169,4.687,0.254,4.687,0.254s-1.163-4.409,1.962-7.533c1.914-1.962,6.516-4.336,11.482,0.412c0,0,2.64,3.912,1.368,9.004
		l39.254,0.079c0,0-0.328-3.234-0.097-4.966c0.23-1.732,1.853-6.407,8.005-6.552c3.174-0.048,9.03,2.229,5.868,11.875
		c0,0,5.451-0.236,6.341-0.417c0.89-0.182,0.86-0.267,0.775-0.437c-0.085-0.169-0.387-0.363-0.303-0.569
		C312.763,487.574,313.768,486.919,313.768,486.362 M271.717,470.072l7.025,4.046l-16.06-0.775l-0.775-2.786
		C261.979,470.557,271.717,470.072,271.717,470.072 M257.801,470.908l0.254,1.623l-2.458-0.097
		C255.657,472.349,257.801,470.908,257.801,470.908 M284.719,485.66c-0.836,0-23.381-0.854-23.381-0.854l-2.072,1.308h-2.398
		l-1.017-2.979l29.903,1.471C285.754,484.606,285.554,485.66,284.719,485.66"/>
	<polygon clip-path="url(#SVGID_2_)" fill="#FFFFFF" points="248.294,484.477 251.318,484.688 251.322,485.107 248.516,485.265 	"/>
	<polygon clip-path="url(#SVGID_2_)" fill="#FFFFFF" points="248.071,485.612 250.73,487.067 250.559,487.45 247.943,486.421 	"/>
	<path clip-path="url(#SVGID_2_)" fill="#FFFFFF" d="M245.532,477.63c-3.862,0-6.994,3.131-6.994,6.994
		c0,3.863,3.132,6.994,6.994,6.994c3.863,0,6.995-3.131,6.995-6.994C252.527,480.761,249.395,477.63,245.532,477.63
		 M247.446,482.476c-0.126-0.112-0.261-0.213-0.405-0.302h0.001l0.657-2.459c0.584,0.259,1.114,0.618,1.566,1.057L247.446,482.476z
		 M244.634,484.625c0-0.496,0.402-0.898,0.898-0.898c0.496,0,0.898,0.402,0.898,0.898s-0.402,0.898-0.898,0.898
		C245.036,485.522,244.634,485.121,244.634,484.625 M247.308,479.561l-0.942,2.309c-0.264-0.08-0.544-0.123-0.834-0.123
		c-0.285,0-0.561,0.042-0.822,0.12l-1.387-2.132c0.674-0.305,1.421-0.477,2.209-0.477
		C246.155,479.257,246.752,479.365,247.308,479.561 M242.957,479.916l1.088,2.245c-0.159,0.096-0.306,0.206-0.442,0.329
		l-2.146-1.354C241.878,480.645,242.385,480.229,242.957,479.916 M241.201,481.458l1.927,1.587c-0.299,0.453-0.474,0.996-0.474,1.58
		v0.007l-2.446,0.65c-0.027-0.215-0.042-0.434-0.042-0.657C240.166,483.439,240.551,482.344,241.201,481.458 M240.271,485.683
		l2.476-0.333c0.047,0.18,0.11,0.354,0.189,0.519l-1.948,1.609C240.648,486.937,240.4,486.332,240.271,485.683 M241.22,487.818
		l2.114-1.338c0.349,0.414,0.813,0.728,1.343,0.893l-0.146,2.523C243.181,489.642,242.009,488.881,241.22,487.818 M244.941,489.958
		l0.457-2.459c0.044,0.002,0.089,0.003,0.134,0.003c0.131,0,0.259-0.009,0.385-0.026l-0.011,0.007l0.92,2.35
		c-0.414,0.102-0.847,0.157-1.294,0.157C245.333,489.99,245.136,489.979,244.941,489.958 M247.233,489.714l-0.612-2.425
		c1.049-0.429,1.789-1.461,1.789-2.665c0-0.588-0.177-1.135-0.479-1.591l1.624-1.959c0.836,0.946,1.344,2.188,1.344,3.55
		C250.899,486.993,249.363,489.003,247.233,489.714"/>
	<path clip-path="url(#SVGID_2_)" fill="#FFFFFF" d="M246.19,484.625c0-0.363-0.295-0.658-0.658-0.658
		c-0.363,0-0.658,0.295-0.658,0.658s0.295,0.658,0.658,0.658C245.896,485.283,246.19,484.987,246.19,484.625"/>
	<path clip-path="url(#SVGID_2_)" fill="#FFFFFF" d="M299.377,478.211c-3.655,0-6.618,2.963-6.618,6.618
		c0,3.654,2.963,6.617,6.618,6.617c3.655,0,6.618-2.963,6.618-6.617C305.995,481.175,303.032,478.211,299.377,478.211
		 M301.188,482.795c-0.119-0.106-0.247-0.201-0.384-0.285h0.001l0.622-2.326c0.553,0.244,1.054,0.584,1.482,0.999L301.188,482.795z
		 M298.528,484.83c0-0.47,0.38-0.85,0.849-0.85c0.469,0,0.85,0.38,0.85,0.85c0,0.469-0.381,0.849-0.85,0.849
		C298.908,485.679,298.528,485.298,298.528,484.83 M301.057,480.038l-0.891,2.185c-0.25-0.076-0.514-0.117-0.789-0.117
		c-0.27,0-0.531,0.04-0.778,0.114l-1.312-2.017c0.637-0.289,1.345-0.451,2.09-0.451
		C299.966,479.751,300.531,479.853,301.057,480.038 M296.941,480.374l1.028,2.125c-0.149,0.09-0.289,0.194-0.418,0.311l-2.03-1.282
		C295.92,481.063,296.4,480.67,296.941,480.374 M295.279,481.833l1.823,1.501c-0.283,0.429-0.448,0.943-0.448,1.496
		c0,0.002,0,0.004,0,0.006l-2.315,0.616c-0.025-0.204-0.04-0.412-0.04-0.622C294.299,483.708,294.664,482.672,295.279,481.833
		 M294.399,485.831l2.342-0.315c0.045,0.17,0.105,0.334,0.18,0.49l-1.844,1.523C294.756,487.017,294.522,486.443,294.399,485.831
		 M295.298,487.852l1.999-1.267c0.331,0.392,0.769,0.689,1.271,0.845l-0.138,2.387C297.152,489.576,296.043,488.856,295.298,487.852
		 M298.818,489.875l0.432-2.326c0.042,0.002,0.084,0.003,0.127,0.003c0.123,0,0.245-0.009,0.363-0.025l-0.009,0.007l0.87,2.223
		c-0.392,0.097-0.802,0.15-1.224,0.15C299.188,489.907,299.002,489.895,298.818,489.875 M300.986,489.645l-0.58-2.294
		c0.994-0.407,1.694-1.382,1.694-2.521c0-0.557-0.167-1.074-0.454-1.506l1.537-1.853c0.791,0.895,1.271,2.07,1.271,3.359
		C304.454,487.07,303.001,488.972,300.986,489.645"/>
	<path clip-path="url(#SVGID_2_)" fill="#FFFFFF" d="M300,484.829c0-0.344-0.279-0.623-0.623-0.623
		c-0.343,0-0.622,0.279-0.622,0.623c0,0.344,0.279,0.623,0.622,0.623C299.721,485.452,300,485.173,300,484.829"/>
</g>
</svg>
